<svg id="Layer_1" data-name="Layer 1" xmlns="http://www.w3.org/2000/svg" xmlns:xlink="http://www.w3.org/1999/xlink" width="487.58" height="107.42" viewBox="0 0 487.58 107.42"><defs><style>.cls-1{fill:none;}.cls-2{clip-path:url(#clip-path);}.cls-3{fill:#5700ff;}</style><clipPath id="clip-path" transform="translate(-6.22 -194.76)"><rect id="SVGID" class="cls-1" x="6.22" y="194.77" width="487.57" height="110.46"/></clipPath></defs><title>remote-logo-freelogovectors.net</title><g class="cls-2"><path class="cls-3" d="M473,241.09a14.93,14.93,0,0,0-4.36-2.38,15,15,0,0,0-9.79,0,14.81,14.81,0,0,0-4.36,2.38,15.16,15.16,0,0,0-5.3,8.53h29.1A15.2,15.2,0,0,0,473,241.09Zm20.53,19.19H449.22a15.71,15.71,0,0,0,5.86,8.61,17.24,17.24,0,0,0,10.48,3.16,21.08,21.08,0,0,0,9.14-2,17.78,17.78,0,0,0,6.55-5L491,273.5A31,31,0,0,1,479.77,282a35.09,35.09,0,0,1-14.63,3A33,33,0,0,1,448.91,281a29.27,29.27,0,0,1-6.47-4.63,29,29,0,0,1-9-21.43,31.3,31.3,0,0,1,4-15.23,27.86,27.86,0,0,1,11-10.67,30.74,30.74,0,0,1,15.43-3.92q12.86,0,21.44,8.57a29,29,0,0,1,8.57,21.44,46.48,46.48,0,0,1-.3,5.14Zm-79.8-20.49v23.73c0,4.88,2.59,7.32,7.84,7.32a18.38,18.38,0,0,0,7.51-1.91v13.56a22.17,22.17,0,0,1-10.67,2.44c-6.36,0-11.2-1.68-14.4-5.1a18.72,18.72,0,0,1-4.83-14V239.79H390V226.5h9.11V217L413.64,212V226.5H429v13.29Zm-46.05,26.55A14.85,14.85,0,0,0,372,255a15.55,15.55,0,0,0-4.41-11.28,16.06,16.06,0,0,0-22.4,0,16.38,16.38,0,0,0,0,22.51,14.48,14.48,0,0,0,11.2,4.57,14.85,14.85,0,0,0,11.16-4.57ZM387.05,255a28.54,28.54,0,0,1-8.76,21.33,30.13,30.13,0,0,1-21.9,8.57c-8.72,0-16-2.86-21.9-8.57a30.15,30.15,0,0,1,0-42.66,30.13,30.13,0,0,1,21.9-8.57q13.08,0,21.86,8.57a28.53,28.53,0,0,1,8.8,21.33ZM311.48,231a20.09,20.09,0,0,1,5.83,15.47V283.6H302.72V250.76c0-3.5-1-6.32-3.05-8.38a10.33,10.33,0,0,0-8.11-3.16,11.91,11.91,0,0,0-8.69,3.24,10.86,10.86,0,0,0-3.31,8.53V283.6H265V250.76a11.54,11.54,0,0,0-3.09-8.38,10.56,10.56,0,0,0-8.26-3.16,11.36,11.36,0,0,0-8.65,3.24A10.87,10.87,0,0,0,241.7,251V283.6H227.15V226.5h14.51v5.9a21.44,21.44,0,0,1,16.91-7.27,22.31,22.31,0,0,1,10.59,2.43,18.26,18.26,0,0,1,7.35,6.86,23.1,23.1,0,0,1,19.43-9.29c6.47,0,11.65,1.9,15.5,5.79ZM197.21,241.09a15,15,0,0,0-18.48,0,15.23,15.23,0,0,0-5.33,8.53h29.18a15.19,15.19,0,0,0-5.34-8.53Zm20.56,19.19H173.59a15.66,15.66,0,0,0,5.83,8.61,17.41,17.41,0,0,0,10.51,3.16,21,21,0,0,0,9.14-2,18.37,18.37,0,0,0,6.55-5l9.72,8.49A30.7,30.7,0,0,1,204.1,282a35,35,0,0,1-14.63,3A33,33,0,0,1,173.25,281,28.93,28.93,0,0,1,157.78,255a30.76,30.76,0,0,1,4-15.23A27.92,27.92,0,0,1,172.67,229a30.75,30.75,0,0,1,15.43-3.88,29.35,29.35,0,0,1,5.92.42,29,29,0,0,1,5.71,1.61A30,30,0,0,1,205,229.9a29.1,29.1,0,0,1,8.34,8.35,28.58,28.58,0,0,1,2.74,5.26,29.22,29.22,0,0,1,1.61,5.71,28.64,28.64,0,0,1,.43,5.92,34.1,34.1,0,0,1-.38,5.14Zm-62.58-34.7v15h-2.44c-5.18,0-9.21,1.45-12.11,4.27a14.88,14.88,0,0,0-4.34,11.62v27.08H121.75V226.5H136.3v7.39a20.2,20.2,0,0,1,16.45-8.31Zm-69.1,52h1.07v24.56H83.08c-26.35,0-41.59-14.89-41.59-39.23V250.38l8.57-2.09a13.8,13.8,0,0,0,10.13-10.52,13.59,13.59,0,0,0-5-13.63A13.86,13.86,0,0,0,32.84,235v53.67H6.22V234a42.57,42.57,0,0,1,.3-4.91,39.85,39.85,0,0,1,1.67-7,39.65,39.65,0,0,1,6.92-12.56A40.16,40.16,0,0,1,26,200.21a39.94,39.94,0,0,1,13.48-4.88,39.29,39.29,0,0,1,7.18-.56,40.41,40.41,0,0,1,33.54,17.3,40.58,40.58,0,0,1,5.62,11.76,38.13,38.13,0,0,1-2.21,26.36,38.89,38.89,0,0,1-15.09,16.95c2.21,8.88,6.86,10.51,17.26,10.51" transform="translate(-6.22 -194.76)"/></g></svg>